<?xml version="1.0" encoding="utf-8"?>
<!-- Generator: Adobe Illustrator 21.0.2, SVG Export Plug-In . SVG Version: 6.00 Build 0)  -->
<svg version="1.1" id="Layer_1" xmlns="http://www.w3.org/2000/svg" xmlns:xlink="http://www.w3.org/1999/xlink" x="0px" y="0px"
	 viewBox="0 0 237.5 207.5" style="enable-background:new 0 0 237.5 207.5;" xml:space="preserve">
<style type="text/css">
	.st0{fill:yellow;}
	.st1{fill:#231F20;}
</style>
<ellipse class="st0" cx="116.7" cy="110.4" rx="99" ry="90"/>
<g>
	<g>
		<path class="st1" d="M126.4,207.5c-48.1,0.7-62.4-11.6-79.6-21c-20-10.8-37.1-32.5-43.6-55.2c-5.1-17.9-4.8-43.7,5.7-66.1
			c3.2-6.7,13.3-12.9,20.9-14.7c4.2-1,8.1-0.2,11.6,2.4c5.6,4.2,8.7,15.7,6.2,22.2c-1.4,3.5-4.2,6.5-6.9,9.3c-2.5,2.6-5,5.2-6.5,8.3
			c-5.4,11.3-2.2,30.6,4,40.8c3.6,5.9,9.8,12.1,17,17.2l0.1,0.1c6.4,4.5,8.1,5.1,8.5,5c-0.1,0-0.3,0.2-0.3,0.3l1.2-0.3
			c0.1,0.6-0.2,1-0.4,1.1c-0.7,0.5-1.9,0.4-9.8-5.1l-0.1-0.1c-4.3-3-12.4-9.3-17.4-17.5c-6.4-10.5-9.6-30.3-4.1-42
			c1.5-3.2,4.2-6,6.7-8.6c2.8-2.9,5.4-5.6,6.7-8.9c2.3-6-0.7-16.9-5.7-20.8c-3.1-2.4-6.7-3.1-10.5-2.2C22.9,53.6,16,61,13,67.5
			C2.6,89.6-0.6,113.4,4.4,131c6.4,22.4,23.2,43.7,42.9,54.4c17.1,9.3,33.9,14.6,52.9,16.7c12.5,1.4,25.7,1.2,41.6-0.7
			c16.3-1.9,31.2-6.1,44.3-12.4c17.7-8.6,26.1-16.7,34.5-33.4c36.1-71.3-29.9-114.9-37.3-120.1c-9.3-6.6-22.3-15-33.9-16.6
			c-6.9-1-20.3-1.6-27.6,2.6l-1-0.8c46.6-17.9,78.9,22.3,94.2,38c18.3,18.9,27,57.7,19.8,75.2C217.8,176.2,199.5,206.5,126.4,207.5z
			"/>
	</g>
	<g>
		<path class="st1" d="M96.5,177.6c0.9-0.5-5.4-21.3-5.9-22.8c-1.7-5.2-3.2-10.5-5.5-15.5c-1.7-3.9-6.7-10.1-4.8-14.5
			c1.8-4.1,9.2-4.4,13.3-3.7c4.3,0.7,8,3.7,9.4,7.5c1.4,3.9,1.8,8,2.2,12.1c0.3,3.6,0.6,7.2,1.7,10.6c8.8-20,21.4-44.3,40.3-59.4
			l6.6-0.4c-19.2,15.3-37.5,41.7-46.3,61.8l-0.6,1.4c0,0-0.6-1.4-0.6-1.4c-2.2-7-1.2-14.7-3.5-21.8c-2-6.2-12.5-14.3-18.1-7.2
			c-3.3,4.2,0.6,11.9,2.5,16.2c4.5,10.4,7.1,22.2,10.4,33c7-2.3,18.2-13.1,25.4-11.4c-0.5,2.4-10.1,4.7-12.6,6
			C105.9,170.6,101.2,175.6,96.5,177.6z"/>
	</g>
	<g>
		<path class="st1" d="M122,27.2c-1.2-5.9,2.7-13.9-2.6-18.7c-13.6-12.3-39.3-1.7-47.5,2.3c-10,4.9-20.2,19.6-25.4,36.6
			c-0.9,3.1-1.7,6-2.2,8.9c0.4,0.3,0.7,0.7,1.1,1c0.5-3.1,1.3-6.3,2.3-9.6c5.1-16.6,15.1-31,24.8-35.8c8-3.9,28-11.8,41-0.1
			c5,4.5,6.1,9.8,7.3,15.5c0.5,2.4,1,4.9,1.9,7.5l1.2-0.4C123,32,122.5,29.6,122,27.2z"/>
	</g>
	<g>
		<path class="st1" d="M74.7,57l-0.3-0.2c-2.3-1.9-3.9-5-4.2-8.3l0.8-0.1c0.4-3.5,3.2-9.2,6.7-10.8c1.3-0.6,3.3-0.9,5.2,1.2
			c1.1,1.2,1.4,3,1,5.2c-1,5-5.8,11.4-8.8,12.8L74.7,57L74.7,57z M71.6,49.7c0.5,2.3,1.7,4.4,3.2,5.8c2.5-1.4,6.8-7,7.8-11.7
			c0.4-1.9,0.2-3.2-0.7-4.1c-1.1-1.2-2.4-1.5-3.7-0.9c-3.4,1.6-6.4,8.1-6,10.9L71.6,49.7L71.6,49.7z"/>
	</g>
	<g>
		<path class="st1" d="M50.1,112.3c-2.6,0.2-5.1-0.2-7.6-1.4c-3.5-1.7-5.9-5.1-6.2-8.8c-0.3-3.1,0.9-6,3.4-7.9
			c2.1-1.6,5.2-2.6,8.3-3.6c2.3-0.7,4.6-1.5,6.4-2.4c3.8-2,7.7-4.7,11.8-8.2c8.9-7.5,18.7-6.9,30-6.1c2.3,0.2,5,0.5,7.9,0.9
			c10,1.4,25.9-3.3,32.6-8.7l-2.5,7.3c-7.1,5.7-19.9,4-30.2,2.6c-2.9-0.4-5.6-0.8-7.8-0.9C85.1,74.4,75.5,73.8,67,81
			c-4.2,3.6-8.1,6.3-12,8.4c-1.9,1-4.3,1.8-6.6,2.5c-2.9,0.9-6,1.9-7.9,3.4c-2.1,1.6-3.1,4-2.9,6.8c0.3,3.2,2.4,6.2,5.5,7.8
			c9,4.5,20.1-3.3,28.7-10.6c0.7-0.6,1.3-1.1,1.8-1.6c2.3-2.1,3.3-3,6.9-3.2c2-0.1,5.1,0.6,7.8,1.2c1.3,0.3,2.5,0.5,3.4,0.7
			c2.9,0.5,5.9,1.2,8.7,1.9c3.5,0.9,7.2,1.8,10.7,2.1c14.6,1.4,24.2-0.3,35.5-12.9l0.9,0.8c-11.7,13-21.9,14.7-36.6,13.4
			c-3.7-0.3-7.4-1.3-10.9-2.2c-2.8-0.7-5.7-1.4-8.6-1.9c-1-0.2-2.2-0.4-3.5-0.7c-2.7-0.6-5.7-1.2-7.5-1.1c-3.2,0.2-3.9,0.8-6.2,2.9
			c-0.5,0.5-1.1,1-1.8,1.6C66,105.8,57.9,111.7,50.1,112.3L50.1,112.3z"/>
	</g>
	<g>
		<path class="st1" d="M59.7,21.2l-1.3,0c0.1-3.7-3.6-7.7-7.1-11.6c-2-2.2-4-4.3-5.2-6.4l-0.3-0.5l0.5-0.3c6.8-5.1,17-2.1,30.2,8.7
			l-0.8,1C60.5-0.4,52,0.1,47.6,3.1c1.1,1.8,2.9,3.7,4.7,5.7C55.9,12.8,59.8,17,59.7,21.2L59.7,21.2z"/>
	</g>
	<g>
		<path class="st1" d="M73.8,32.6l-0.1-1.1c-0.2-4.1,0.2-7.8,1.1-11.1l1.2,0.4c-0.8,2.8-1.2,5.8-1.1,9.2c0,0,0-0.1,0.1-0.1l1.1,0.7
			c-0.4,0.6-0.8,1.1-1.3,1.4L73.8,32.6L73.8,32.6z"/>
	</g>
	<g>
		<path class="st1" d="M53.5,69.5l-0.7-1c0.8-0.6,2.6-3,4.3-5.3c1.8-2.5,3.9-5.4,5.6-7.1l0.9,0.9c-1.6,1.6-3.7,4.4-5.5,6.9
			C56.2,66.6,54.6,68.8,53.5,69.5L53.5,69.5z"/>
	</g>
	<g>
		<path class="st1" d="M86.5,50.3c-1.3,0.1-2.9-0.4-4.6-2.3l0.9-0.8c1.5,1.8,3,2.3,4.5,1.7c4.9-2.1,8.4-14.8,8.1-18l1.2-0.1
			c0.3,3.6-3.4,17-8.9,19.3C87.5,50.1,87,50.2,86.5,50.3L86.5,50.3z"/>
	</g>
	<g>
		<path class="st1" d="M69.5,161.8l-0.2-0.6c-0.5-1.5-0.5-3-0.5-4.5c0-1.3,0-2.7-0.3-4.1c-1-4.4-4.5-8.5-7.5-12.1
			c-0.8-0.9-1.5-1.8-2.3-2.7c-9.3-11.6-12.7-20.1-10.1-25.3c1.8-3.7,4.1-5.5,6.8-5.4c10.1,0.2,22.2,27.3,22.7,28.5L77,136
			c-0.1-0.3-12.3-27.5-21.6-27.7c-2.2,0-4.1,1.5-5.6,4.7c-2.3,4.7,1,12.8,10,24c0.7,0.9,1.4,1.7,2.2,2.7c3.2,3.7,6.7,7.9,7.8,12.6
			c0.4,1.6,0.4,3,0.3,4.4c0,1.2,0,2.4,0.2,3.5c1.8-0.6,3.9-1.3,5.9-2c4.2-1.4,8.5-2.8,11.6-4l0.4,1.2c-3.1,1.2-7.4,2.6-11.6,4
			c-2.3,0.8-4.5,1.5-6.5,2.2L69.5,161.8L69.5,161.8z"/>
	</g>
	<g>
		<path class="st1" d="M73,102.7c-0.5-2,0-4.7,4.8-6.7l0.5,1.2c-3.2,1.3-4.5,3.1-4,5.3c1.7,7.3,21.4,16.8,26.8,16.4c0,0,0.1,0,0.1,0
			c4-0.3,6.9-2.5,8-6c1.4-4.3,0-9.7-3-12.2c-1.3-1.1-3.4-2-6.3-0.4l-0.6-1.1c2.7-1.5,5.5-1.4,7.7,0.5c3.4,2.8,4.9,8.9,3.4,13.6
			c-1.3,4.1-2.8,8.1-11.8,7.3C89.5,119.8,74.9,110.7,73,102.7z"/>
	</g>
	<g>
		<path class="st1" d="M75.9,66.6c-0.4,0-0.7,0-1,0l0.1-1.3c4,0.2,9.1-3.2,11.4-7.6c0.9-1.7,2.1-5.1-0.2-8.1l1-0.8
			c2,2.7,2.1,6,0.3,9.5C85,62.8,80.2,66.2,75.9,66.6L75.9,66.6z"/>
	</g>
</g>
</svg>
